<svg width="16" height="16" viewBox="0 0 16 16" fill="none" xmlns="http://www.w3.org/2000/svg">
<g id="bi:check">
<g id="Group">
<path id="Vector" d="M10.9706 4.97047C11.1115 4.83636 11.299 4.76222 11.4935 4.76369C11.688 4.76516 11.8743 4.84214 12.0131 4.97836C12.1519 5.11459 12.2324 5.29942 12.2375 5.49385C12.2427 5.68828 12.1721 5.8771 12.0406 6.02047L8.05065 11.0105C7.98204 11.0844 7.89923 11.1437 7.80718 11.1848C7.71513 11.226 7.61572 11.2482 7.5149 11.2501C7.41408 11.2519 7.31392 11.2334 7.2204 11.1957C7.12689 11.158 7.04194 11.1018 6.97065 11.0305L4.32465 8.38447C4.25096 8.31581 4.19186 8.23301 4.15086 8.14101C4.10987 8.04901 4.08783 7.9497 4.08605 7.849C4.08428 7.74829 4.1028 7.64827 4.14052 7.55488C4.17824 7.46149 4.23439 7.37666 4.30561 7.30544C4.37683 7.23422 4.46166 7.17807 4.55505 7.14035C4.64844 7.10263 4.74847 7.08411 4.84917 7.08588C4.94987 7.08766 5.04918 7.1097 5.14118 7.15069C5.23318 7.19169 5.31598 7.25079 5.38465 7.32447L7.47865 9.41747L10.9516 4.99248C10.9579 4.98478 10.9646 4.97743 10.9716 4.97047H10.9706Z" fill="white"/>
</g>
</g>
</svg>
