<svg width="16" height="11" viewBox="0 0 16 11" fill="none" xmlns="http://www.w3.org/2000/svg">
<path d="M8.88017 10.0424L15.6461 2.68461C15.8716 2.44155 15.9989 2.1112 16 1.76623C16.0011 1.42127 15.876 1.08995 15.6521 0.845159C15.4281 0.60037 15.1238 0.462165 14.8061 0.460946C14.4883 0.459727 14.1831 0.595594 13.9576 0.838659L7.97006 7.2735L2.04242 0.838659C1.81692 0.595594 1.51172 0.459727 1.19394 0.460946C0.876169 0.462165 0.571856 0.60037 0.347949 0.845159C0.124043 1.08995 -0.0011158 1.42127 7.62939e-06 1.76623C0.0011301 2.1112 0.128444 2.44155 0.353938 2.68461L7.11983 10.0424C7.23197 10.1744 7.36807 10.2797 7.51955 10.3517C7.67104 10.4238 7.83462 10.4609 8 10.4609C8.16538 10.4609 8.32896 10.4238 8.48045 10.3517C8.63193 10.2797 8.76803 10.1744 8.88017 10.0424Z" fill="#43425D"/>
</svg>
