<svg width="14" height="8" viewBox="0 0 14 8" fill="none" xmlns="http://www.w3.org/2000/svg">
<path d="M7.98803 7.43502L13.638 1.77502C13.8263 1.58804 13.9326 1.33391 13.9336 1.06855C13.9345 0.803187 13.83 0.548319 13.643 0.360015C13.4561 0.171712 13.2019 0.0653971 12.9366 0.0644594C12.6712 0.0635217 12.4163 0.168038 12.228 0.355015L7.22803 5.30502L2.27803 0.355015C2.08973 0.168038 1.83486 0.0635217 1.5695 0.0644594C1.30413 0.0653971 1.05001 0.171712 0.86303 0.360015C0.676053 0.548319 0.571537 0.803187 0.572474 1.06855C0.573412 1.33391 0.679728 1.58804 0.868032 1.77502L6.51803 7.43502C6.61167 7.53652 6.72533 7.61753 6.85182 7.67294C6.97832 7.72834 7.11493 7.75695 7.25303 7.75695C7.39113 7.75695 7.52774 7.72834 7.65424 7.67294C7.78074 7.61753 7.89439 7.53652 7.98803 7.43502Z" fill="#A6A5B7"/>
</svg>
