<svg width="80" height="80" viewBox="0 0 80 80" fill="none" xmlns="http://www.w3.org/2000/svg">
<g id="Group 43">
<path id="Caminho 1" d="M40 0C47.9112 0 55.6448 2.34596 62.2228 6.74121C68.8008 11.1365 73.9277 17.3836 76.9552 24.6927C79.9827 32.0017 80.7748 40.0444 79.2314 47.8036C77.688 55.5628 73.8784 62.6902 68.2843 68.2843C62.6902 73.8784 55.5628 77.688 47.8036 79.2314C40.0444 80.7748 32.0017 79.9827 24.6927 76.9552C17.3836 73.9277 11.1365 68.8008 6.74121 62.2228C2.34596 55.6448 0 47.9112 0 40C0 29.3913 4.21427 19.2172 11.7157 11.7157C19.2172 4.21427 29.3913 0 40 0V0Z" fill="#00A859"/>
<g id="Caminho 5">
<path d="M26.4883 40.3806L35.3369 50.6087L52.2018 31.1113" fill="#00A859"/>
<path d="M26.4883 40.3806L35.3369 50.6087L52.2018 31.1113" stroke="white" stroke-width="4" stroke-linecap="round"/>
</g>
</g>
</svg>
