<svg width="28" height="28" viewBox="0 0 28 28" fill="none" xmlns="http://www.w3.org/2000/svg">
<path d="M14.0013 27.3327C6.63751 27.3327 0.667969 21.3631 0.667969 13.9993C0.667969 6.63555 6.63751 0.666016 14.0013 0.666016C21.3651 0.666016 27.3346 6.63555 27.3346 13.9993C27.3266 21.3598 21.3617 27.3246 14.0013 27.3327ZM14.0013 3.33268C8.11026 3.33268 3.33464 8.10831 3.33464 13.9993C3.33464 19.8904 8.11026 24.666 14.0013 24.666C19.8923 24.666 24.668 19.8904 24.668 13.9993C24.6614 8.11105 19.8896 3.3393 14.0013 3.33268ZM20.668 15.3327H12.668V7.33268H15.3346V12.666H20.668V15.3327Z" fill="#43425D"/>
</svg>
