<svg width="80" height="80" viewBox="0 0 80 80" fill="none" xmlns="http://www.w3.org/2000/svg">
<g id="attention / error_outline">
<path id="coolicon" d="M39.968 73.3327C21.5628 73.3143 6.65572 58.3823 6.66798 39.9771C6.68025 21.572 21.6073 6.65989 40.0124 6.66602C58.4176 6.67215 73.3346 21.5942 73.3346 39.9993C73.3236 58.4173 58.3859 73.34 39.968 73.3327ZM13.3346 40.5727C13.4924 55.2435 25.4717 67.0311 40.1431 66.9527C54.8145 66.8734 66.6664 54.9576 66.6664 40.286C66.6664 25.6144 54.8145 13.6986 40.1431 13.6193C25.4717 13.5409 13.4924 25.3285 13.3346 39.9993V40.5727ZM43.3346 56.666H36.668V49.9993H43.3346V56.666ZM43.3346 43.3327H36.668V23.3327H43.3346V43.3327Z" fill="#FA8C16"/>
</g>
</svg>
