<svg width="80" height="80" viewBox="0 0 80 80" fill="none" xmlns="http://www.w3.org/2000/svg">
<g id="basic / help_circle_outline" opacity="0.8">
<path id="coolicon" d="M40.0013 73.3327C21.6002 73.3125 6.68818 58.4005 6.66797 39.9994V39.3327C7.03441 21.0145 22.1166 6.42593 40.4369 6.66901C58.7572 6.91209 73.447 21.8957 73.3273 40.2172C73.2076 58.5387 58.3232 73.3291 40.0013 73.3327ZM39.948 66.6661H40.0013C54.7237 66.6513 66.6487 54.7085 66.6413 39.9861C66.6339 25.2637 54.697 13.3328 39.9746 13.3328C25.2522 13.3328 13.3153 25.2637 13.308 39.9861C13.3006 54.7085 25.2256 66.6513 39.948 66.6661ZM43.3346 59.9994H36.668V53.3327H43.3346V59.9994ZM43.3346 49.9994H36.668C36.5626 45.6583 38.8218 41.602 42.568 39.4061C44.768 37.7194 46.668 36.2661 46.668 33.3327C46.668 29.6508 43.6832 26.6661 40.0013 26.6661C36.3194 26.6661 33.3346 29.6508 33.3346 33.3327H26.668V33.0327C26.7216 28.2692 29.3124 23.8961 33.4645 21.5607C37.6167 19.2254 42.6993 19.2826 46.7979 21.7107C50.8964 24.1389 53.3882 28.5692 53.3346 33.3327C53.0959 36.9295 51.1669 40.2003 48.1346 42.1494C45.3936 43.87 43.6171 46.7755 43.3346 49.9994Z" fill="#FAAC31"/>
</g>
</svg>
