<svg width="18" height="18" viewBox="0 0 18 18" fill="none" xmlns="http://www.w3.org/2000/svg">
<path d="M13.1803 10.7913C14.0818 9.30675 14.4082 7.54344 14.0978 5.83463C13.7873 4.12582 12.8615 2.58991 11.4953 1.51717C10.129 0.444436 8.41709 -0.0908034 6.68296 0.012614C4.94883 0.116031 3.31266 0.85094 2.08369 2.07844C0.854723 3.30595 0.118091 4.94101 0.013018 6.6746C-0.0920547 8.40819 0.441712 10.1202 1.51344 11.4871C2.58516 12.854 4.1206 13.781 5.82955 14.093C7.5385 14.405 9.30257 14.0803 10.7884 13.1804L15.6092 18L18 15.6087L13.1803 10.7913ZM7.12189 11.5098C6.25594 11.5087 5.40975 11.251 4.69028 10.7692C3.9708 10.2874 3.41034 9.60321 3.07973 8.80306C2.74911 8.00291 2.66318 7.12273 2.8328 6.27377C3.00242 5.42481 3.41997 4.64517 4.03268 4.0334C4.6454 3.42163 5.42577 3.00518 6.27516 2.83669C7.12456 2.6682 8.00485 2.75524 8.80478 3.0868C9.60471 3.41835 10.2884 3.97955 10.7693 4.69946C11.2503 5.41936 11.507 6.26566 11.507 7.1314C11.5041 8.29269 11.0409 9.40548 10.219 10.2261C9.39715 11.0467 8.28348 11.5083 7.12189 11.5098Z" fill="#43425D"/>
</svg>
