<svg width="18" height="15" viewBox="0 0 18 15" fill="none" xmlns="http://www.w3.org/2000/svg">
<path d="M4.90851 0.122401C4.86933 0.0836016 4.82277 0.0528186 4.77152 0.031815C4.72027 0.0108114 4.66532 0 4.60983 0C4.55434 0 4.49939 0.0108114 4.44814 0.031815C4.39689 0.0528186 4.35033 0.0836016 4.31115 0.122401L2.07242 2.3211L1.2748 1.55339C1.23562 1.51459 1.18906 1.48381 1.13781 1.4628C1.08655 1.4418 1.03161 1.43099 0.976119 1.43099C0.920628 1.43099 0.865683 1.4418 0.81443 1.4628C0.763177 1.48381 0.716623 1.51459 0.677434 1.55339L0.12394 2.0989C0.084653 2.1376 0.0534828 2.18357 0.0322151 2.23419C0.0109474 2.28481 0 2.33907 0 2.39387C0 2.44867 0.0109474 2.50293 0.0322151 2.55355C0.0534828 2.60417 0.084653 2.65014 0.12394 2.68885L1.80017 4.33426C1.88375 4.4124 1.99446 4.45594 2.10954 4.45594C2.22463 4.45594 2.33534 4.4124 2.41892 4.33426L2.96679 3.79208L5.50251 1.28563C5.58103 1.20704 5.62506 1.10107 5.62506 0.990659C5.62506 0.880247 5.58103 0.774276 5.50251 0.695685L4.90851 0.122401ZM4.90851 5.6497C4.86933 5.6109 4.82277 5.58012 4.77152 5.55911C4.72027 5.53811 4.66532 5.5273 4.60983 5.5273C4.55434 5.5273 4.49939 5.53811 4.44814 5.55911C4.39689 5.58012 4.35033 5.6109 4.31115 5.6497L2.07242 7.86173L1.2748 7.09402C1.23562 7.05522 1.18906 7.02444 1.13781 7.00343C1.08655 6.98243 1.03161 6.97162 0.976119 6.97162C0.920628 6.97162 0.865683 6.98243 0.81443 7.00343C0.763177 7.02444 0.716623 7.05522 0.677434 7.09402L0.125065 7.63842C0.085778 7.67712 0.0546078 7.72309 0.0333401 7.77371C0.0120724 7.82433 0.00112499 7.87859 0.00112499 7.93339C0.00112499 7.98819 0.0120724 8.04246 0.0333401 8.09307C0.0546078 8.14369 0.085778 8.18966 0.125065 8.22837L1.79342 9.87711C1.877 9.95525 1.98771 9.9988 2.10279 9.9988C2.21788 9.9988 2.32859 9.95525 2.41217 9.87711L2.96453 9.33271L5.50251 6.82626C5.58083 6.74824 5.62477 6.64282 5.62477 6.53296C5.62477 6.42309 5.58083 6.31767 5.50251 6.23965L4.90851 5.6497ZM2.25017 11.667C1.80262 11.667 1.3734 11.8425 1.05694 12.1551C0.740473 12.4676 0.562686 12.8915 0.562686 13.3335C0.562686 13.7755 0.740473 14.1994 1.05694 14.5119C1.3734 14.8244 1.80262 15 2.25017 15C2.69772 15 3.12693 14.8244 3.4434 14.5119C3.75986 14.1994 3.93765 13.7755 3.93765 13.3335C3.93765 12.8915 3.75986 12.4676 3.4434 12.1551C3.12693 11.8425 2.69772 11.667 2.25017 11.667ZM17.4375 12.2225H7.31261C7.16343 12.2225 7.02036 12.281 6.91487 12.3852C6.80938 12.4893 6.75012 12.6306 6.75012 12.778V13.889C6.75012 14.0363 6.80938 14.1776 6.91487 14.2818C7.02036 14.386 7.16343 14.4445 7.31261 14.4445H17.4375C17.5867 14.4445 17.7298 14.386 17.8353 14.2818C17.9407 14.1776 18 14.0363 18 13.889V12.778C18 12.6306 17.9407 12.4893 17.8353 12.3852C17.7298 12.281 17.5867 12.2225 17.4375 12.2225ZM17.4375 1.11232H7.31261C7.16343 1.11232 7.02036 1.17084 6.91487 1.27502C6.80938 1.3792 6.75012 1.52049 6.75012 1.66782V2.77884C6.75012 2.92617 6.80938 3.06746 6.91487 3.17164C7.02036 3.27582 7.16343 3.33434 7.31261 3.33434H17.4375C17.5867 3.33434 17.7298 3.27582 17.8353 3.17164C17.9407 3.06746 18 2.92617 18 2.77884V1.66782C18 1.52049 17.9407 1.3792 17.8353 1.27502C17.7298 1.17084 17.5867 1.11232 17.4375 1.11232ZM17.4375 6.66739H7.31261C7.16343 6.66739 7.02036 6.72592 6.91487 6.83009C6.80938 6.93427 6.75012 7.07557 6.75012 7.2229V8.33391C6.75012 8.48124 6.80938 8.62254 6.91487 8.72672C7.02036 8.83089 7.16343 8.88942 7.31261 8.88942H17.4375C17.5867 8.88942 17.7298 8.83089 17.8353 8.72672C17.9407 8.62254 18 8.48124 18 8.33391V7.2229C18 7.07557 17.9407 6.93427 17.8353 6.83009C17.7298 6.72592 17.5867 6.66739 17.4375 6.66739Z" fill="#43425D"/>
</svg>
