<svg width="32" height="32" viewBox="0 0 32 32" fill="none" xmlns="http://www.w3.org/2000/svg">
<path d="M15.9987 29.3327C14.5259 29.3327 13.332 28.1388 13.332 26.666H18.6654C18.6654 28.1388 17.4715 29.3327 15.9987 29.3327ZM26.6654 25.3327H5.33203V22.666L7.9987 21.3327V13.9993C7.9987 9.38335 9.89336 6.39002 13.332 5.57268V2.66602H18.6654V5.57268C22.104 6.38868 23.9987 9.38068 23.9987 13.9993V21.3327L26.6654 22.666V25.3327ZM15.9987 7.66602C14.3716 7.56095 12.8024 8.28905 11.832 9.59935C11.0021 10.9121 10.5949 12.4479 10.6654 13.9993V22.666H21.332V13.9993C21.4024 12.4479 20.9952 10.9121 20.1654 9.59935C19.195 8.28905 17.6258 7.56095 15.9987 7.66602Z" fill="#43425D"/>
</svg>
