<svg width="24" height="24" viewBox="0 0 24 24" fill="none" xmlns="http://www.w3.org/2000/svg">
<path d="M18.676 19.6076L12.961 13.8916C10.4187 15.6991 6.91544 15.257 4.90188 12.8746C2.88831 10.4921 3.03616 6.96422 5.242 4.75863C7.44726 2.55208 10.9755 2.40359 13.3584 4.41705C15.7413 6.4305 16.1836 9.93408 14.376 12.4766L20.091 18.1926L18.677 19.6066L18.676 19.6076ZM9.484 5.00062C7.58771 5.00019 5.95169 6.33131 5.56648 8.18807C5.18126 10.0448 6.15271 11.9169 7.89268 12.6709C9.63265 13.4248 11.6629 12.8535 12.7542 11.3027C13.8456 9.7519 13.6981 7.64795 12.401 6.26463L13.006 6.86463L12.324 6.18463L12.312 6.17263C11.5638 5.41981 10.5454 4.99776 9.484 5.00062Z" fill="#C2C6D9"/>
</svg>
